<svg width="179" height="133" viewBox="0 0 179 133" fill="none" xmlns="http://www.w3.org/2000/svg">
<path d="M111.454 81.7309L77.3987 79.7182C76.2104 79.6538 74.8082 78.7292 74.2803 77.6619L58.0029 49.304C57.475 48.2367 58.0155 47.417 59.2045 47.4817L92.9763 49.3078C94.1653 49.3726 95.5675 50.2972 96.0947 51.3641L112.655 79.9086C113.181 80.9756 112.641 81.7948 111.454 81.7309ZM89.7348 117.239L55.962 115.413C54.772 115.349 54.3427 114.476 55.0026 113.475L73.9778 84.6971C74.6385 83.6951 76.15 82.9271 77.3396 82.9923L110.927 85.0999C112.115 85.1648 112.546 86.0361 111.885 87.0381L93.0955 115.534C92.4348 116.536 90.9231 117.304 89.7348 117.239Z" fill="#FBA919"/>
<path d="M33.8672 82.4084L49.5899 111.609C50.1182 112.677 51.0898 112.728 51.7497 111.727L70.7249 82.9493C71.3856 81.9473 71.4961 80.2555 70.9676 79.1877L54.6892 50.8301C54.1615 49.7637 53.1907 49.7105 52.53 50.7125L34.1101 78.6478C33.4494 79.6499 33.3399 81.3415 33.8672 82.4084Z" fill="#FBA919"/>
<path d="M167.559 43.9332L151.294 59.0112C150.729 59.5399 149.665 59.7821 148.926 59.5498L128.294 54.4324C127.556 54.2 127.414 53.5776 127.979 53.0486L144.029 38.0196C144.594 37.4907 145.659 37.2485 146.397 37.481L167.244 42.5495C167.982 42.7825 168.123 43.4045 167.559 43.9332ZM174.454 70.1006L158.404 85.1301C157.838 85.6596 157.235 85.4683 157.062 84.7083L152.092 62.8566C151.919 62.0957 152.239 61.0409 152.804 60.5118L168.903 45.6962C169.468 45.1677 170.071 45.3573 170.244 46.1181L175.166 67.7563C175.339 68.5172 175.019 69.5717 174.454 70.1006Z" fill="#FBA919"/>
<path d="M132.972 80.6567L153.75 86.4134C154.489 86.6461 154.95 86.2129 154.777 85.4528L149.806 63.6012C149.633 62.8403 148.889 62.0274 148.15 61.7951L127.518 56.6783C126.78 56.4462 126.318 56.8779 126.491 57.6388L131.316 78.851C131.489 79.6118 132.234 80.4242 132.972 80.6567Z" fill="#FBA919"/>
<path d="M118.41 38.0136L111.25 38.5188C111 38.5377 110.683 38.3829 110.543 38.1745L106.377 32.7002C106.238 32.4919 106.328 32.3062 106.578 32.2874L113.674 31.7509C113.924 31.7321 114.241 31.8869 114.38 32.0952L118.611 37.6008C118.75 37.8091 118.659 37.9947 118.41 38.0136ZM114.843 46.012L107.747 46.5485C107.497 46.5674 107.384 46.3969 107.494 46.1701L110.671 39.6506C110.782 39.4236 111.077 39.2223 111.327 39.2035L118.391 38.7308C118.641 38.7121 118.755 38.8822 118.644 39.1092L115.498 45.565C115.387 45.792 115.093 45.9931 114.843 46.012Z" fill="#FBA919"/>
<path d="M102.229 40.2666L106.303 45.9318C106.442 46.1403 106.646 46.1245 106.757 45.8978L109.934 39.3782C110.044 39.1512 110.021 38.7952 109.882 38.5868L105.716 33.1126C105.576 32.9044 105.372 32.9197 105.262 33.1467L102.178 39.4755C102.067 39.7025 102.09 40.0584 102.229 40.2666Z" fill="#FBA919"/>
<path d="M32.1274 8.26399L20.627 19.381C20.2277 19.7707 19.4636 19.9614 18.9276 19.805L3.97379 16.4258C3.43783 16.2694 3.32638 15.8228 3.726 15.4329L15.0722 4.3544C15.4718 3.96451 16.2359 3.77384 16.7715 3.93037L31.8797 7.27101C32.415 7.42791 32.5263 7.87428 32.1274 8.26399ZM37.4933 27.0281L26.1468 38.107C25.7469 38.4973 25.3093 38.3684 25.1732 37.823L21.2602 22.1417C21.124 21.5957 21.3384 20.8302 21.7384 20.4403L33.1232 9.51491C33.5225 9.1254 33.9602 9.25297 34.0964 9.79898L37.9712 25.3271C38.1075 25.8731 37.8926 26.6383 37.4933 27.0281Z" fill="#FBA919"/>
<path d="M7.73022 35.261L22.7989 39.0989C23.3353 39.2556 23.6611 38.9362 23.525 38.3908L19.612 22.7095C19.4757 22.1635 18.9268 21.5886 18.3905 21.4322L3.43637 18.0535C2.90085 17.8973 2.57443 18.2155 2.71068 18.7615L6.50918 33.9839C6.64543 34.53 7.19463 35.1045 7.73022 35.261Z" fill="#FBA919"/>
</svg>
